#!OML:ASF H:\Dans Jumps\Project 1\Capture day 1\Session 1\subject.ASF
:FULLY-SPECIFIED
:DEGREES
606
root 0.431796 17.7418 3.92182 7.83628 -1.27943 -1.89298
lowerback -4.84711 0.10972 0.340476
upperback 0.731403 0.0769995 1.41847
thorax 3.47083 0.0308253 1.27664
lowerneck -13.0476 -0.529287 -2.7554
upperneck 23.4999 -0.54858 1.80902
head 9.58557 -0.297988 1.02688
rclavicle -9.44227e-016 5.76476e-015
rhumerus -27.3178 -19.3291 -77.9814
rradius 23.1004
rwrist 35.4884
rhand -21.5985 -27.6305
rfingers 7.12502
rthumb 4.79644 -57.5562
lclavicle -9.44227e-016 5.76476e-015
lhumerus -25.3636 -1.29424 87.8051
lradius 23.642
lwrist 7.4725
lhand -25.8712 -5.47143
lfingers 7.12502
lthumb 0.67014 24.5073
rfemur -12.1628 -2.45375 19.8681
rtibia 19.2318
rfoot -12.9503 1.66608
rtoes 20.2793
lfemur -10.3645 6.57755 -17.4332
ltibia 16.7363
lfoot -9.41556 8.96966
ltoes 1.59345
607
root 0.4316 17.7417 3.91997 7.82539 -1.27585 -1.89536
lowerback -4.84541 0.105231 0.342453
upperback 0.726914 0.070943 1.41942
thorax 3.46536 0.0278617 1.27602
lowerneck -13.0568 -0.522793 -2.75058
upperneck 23.4616 -0.539638 1.80745
head 9.57356 -0.293391 1.02634
rclavicle 1.26725e-015 1.23246e-014
rhumerus -27.323 -19.3428 -77.9622
rradius 23.0895
rwrist 35.5068
rhand -21.5981 -27.6233
rfingers 7.12502
rthumb 4.79684 -57.549
lclavicle 1.26725e-015 1.23246e-014
lhumerus -25.3572 -1.23415 87.7849
lradius 23.5764
lwrist 7.38999
lhand -25.8694 -5.44282
lfingers 7.12502
lthumb 0.671897 24.5359
rfemur -12.1605 -2.46359 19.8719
rtibia 19.2376
rfoot -12.9467 1.67269
rtoes 20.2791
lfemur -10.3626 6.57107 -17.4295
ltibia 16.7428
lfoot -9.40998 8.97454
ltoes 1.5766
608
root 0.431457 17.7416 3.91824 7.81269 -1.27143 -1.89318
lowerback -4.84438 0.0995234 0.341062
upperback 0.725096 0.063459 1.41922
thorax 3.46304 0.0241209 1.276
lowerneck -13.0768 -0.515429 -2.73836
upperneck 23.4325 -0.528228 1.79478
head 9.5667 -0.288232 1.02106
rclavicle -8.69683e-016 -1.78906e-015
rhumerus -27.3219 -19.362 -77.9429
rradius 23.0725
rwrist 35.5286
rhand -21.6003 -27.6036
rfingers 7.12502
rthumb 4.79468 -57.5293
lclavicle -8.69683e-016 -1.78906e-015
lhumerus -25.3491 -1.16733 87.7639
lradius 23.505
lwrist 7.30034
lhand -25.871 -5.41715
lfingers 7.12502
lthumb 0.67031 24.5615
rfemur -12.1553 -2.47809 19.8704
rtibia 19.2435
rfoot -12.9443 1.683
rtoes 20.2856
lfemur -10.3571 6.5659 -17.431
ltibia 16.7468
lfoot -9.40461 8.97738
ltoes 1.55771
609
root 0.431388 17.7415 3.91668 7.799 -1.26677 -1.88407
lowerback -4.84436 0.092628 0.334532
upperback 0.723531 0.0547674 1.41663
thorax 3.46158 0.0196999 1.27631
lowerneck -13.1028 -0.506189 -2.72114
upperneck 23.4133 -0.513756 1.77592
head 9.56442 -0.281921 1.01323
rclavicle 6.23687e-015 1.03368e-014
rhumerus -27.3222 -19.3781 -77.9253
rradius 23.0564
rwrist 35.5469
rhand -21.5959 -27.5851
rfingers 7.12502
rthumb 4.79895 -57.5107
lclavicle 6.23687e-015 1.03368e-014
lhumerus -25.3456 -1.09512 87.7414
lradius 23.4317
lwrist 7.20734
lhand -25.8701 -5.38178
lfingers 7.12502
lthumb 0.671172 24.5969
rfemur -12.1484 -2.50238 19.8609
rtibia 19.2495
rfoot -12.9428 1.70179
rtoes 20.2873
lfemur -10.3481 6.56086 -17.4404
ltibia 16.7482
lfoot -9.40089 8.97815
ltoes 1.54327
610
root 0.431282 17.7414 3.91513 7.78525 -1.26022 -1.87979
lowerback -4.84302 0.085027 0.332981
upperback 0.721072 0.0448052 1.41567
thorax 3.45848 0.0147334 1.27541
lowerneck -13.1268 -0.497688 -2.70144
upperneck 23.3983 -0.499771 1.75207
head 9.56323 -0.276205 1.00322
rclavicle 1.00635e-014 -1.64991e-014
rhumerus -27.3263 -19.3893 -77.9085
rradius 23.0437
rwrist 35.5578
rhand -21.5862 -27.5677
rfingers 7.12502
rthumb 4.80831 -57.4932
lclavicle 1.00635e-014 -1.64991e-014
lhumerus -25.3456 -1.01937 87.7188
lradius 23.3549
lwrist 7.11553
lhand -25.8705 -5.36011
lfingers 7.12502
lthumb 0.670862 24.6186
rfemur -12.1407 -2.52659 19.8571
rtibia 19.255
rfoot -12.9425 1.71857
rtoes 20.2845
lfemur -10.3384 6.55562 -17.4438
ltibia 16.7483
lfoot -9.39834 8.97669
ltoes 1.53766
611
root 0.431115 17.7414 3.91363 7.77129 -1.25233 -1.87471
lowerback -4.8425 0.0772082 0.330547
upperback 0.719407 0.0345958 1.4144
thorax 3.45667 0.00962552 1.27466
lowerneck -13.1513 -0.491324 -2.68722
upperneck 23.3859 -0.488801 1.73341
head 9.56315 -0.271805 0.995597
rclavicle -3.23025e-016 1.98785e-016
rhumerus -27.3325 -19.3989 -77.8934
rradius 23.0353
rwrist 35.5624
rhand -21.5674 -27.5557
rfingers 7.12502
rthumb 4.82654 -57.4807
lclavicle -3.23025e-016 1.98785e-016
lhumerus -25.348 -0.940904 87.6959
lradius 23.278
lwrist 7.02222
lhand -25.8692 -5.34393
lfingers 7.12502
lthumb 0.672052 24.6348
rfemur -12.1315 -2.55205 19.8527
rtibia 19.2591
rfoot -12.9427 1.73531
rtoes 20.2757
lfemur -10.3286 6.55363 -17.4477
ltibia 16.7489
lfoot -9.39835 8.9692
ltoes 1.54509
